<?xml version="1.0" encoding="UTF-8"?>
<svg version="1.1" xmlns="http://www.w3.org/2000/svg" width="225" height="225">
<path d="M0 0 C74.25 0 148.5 0 225 0 C225 74.25 225 148.5 225 225 C150.75 225 76.5 225 0 225 C0 150.75 0 76.5 0 0 Z " fill="#FDFDFD" transform="translate(0,0)"/>
<path d="M0 0 C34.65 0 69.3 0 105 0 C105 5.61 105 11.22 105 17 C100.05 17 95.1 17 90 17 C90.0404251 26.62361349 90.09764747 36.24673356 90.18390274 45.87004757 C90.22330067 50.33924194 90.25552662 54.80824155 90.27099609 59.27758789 C90.2862136 63.59613506 90.32074853 67.91414651 90.36830902 72.2324543 C90.38307055 73.87450041 90.391038 75.51662303 90.39188385 77.15873528 C90.39532488 89.59290154 90.39532488 89.59290154 95 101 C95.50176758 101.96583008 96.00353516 102.93166016 96.52050781 103.92675781 C96.99327148 104.76045898 97.46603516 105.59416016 97.953125 106.453125 C98.48655518 107.39615479 99.01998535 108.33918457 99.56958008 109.31079102 C100.12411865 110.28072998 100.67865723 111.25066895 101.25 112.25 C101.82194092 113.26054443 102.39388184 114.27108887 102.9831543 115.31225586 C105.45287694 119.65246349 107.93718135 123.96883997 110.62890625 128.17578125 C111.0043457 128.76262695 111.37978516 129.34947266 111.76660156 129.95410156 C112.73201071 131.43872235 113.71860293 132.90951075 114.70703125 134.37890625 C116.29061612 137.5891342 116.29666578 139.44082566 116 143 C114.76928711 145.83886719 114.76928711 145.83886719 113.02734375 148.796875 C112.05873413 150.46496216 112.05873413 150.46496216 111.07055664 152.16674805 C110.35977506 153.36130659 109.64875065 154.55572068 108.9375 155.75 C108.21546238 156.98339814 107.49469403 158.21754011 106.77514648 159.45239258 C105.28152436 162.01234746 103.78131289 164.56826887 102.27636719 167.12158203 C100.0357896 170.92951033 97.82958579 174.75651564 95.6328125 178.58984375 C95.28736893 179.19214813 94.94192535 179.79445251 94.58601379 180.41500854 C93.90828105 181.59674443 93.23061143 182.77851652 92.55300903 183.96032715 C90.97707108 186.70832556 89.39885291 189.45496219 87.81640625 192.19921875 C87.29506104 193.10502686 86.77371582 194.01083496 86.23657227 194.9440918 C85 197 85 197 84 198 C82.03878965 198.14130703 80.07249418 198.21246749 78.10668945 198.25634766 C76.84480301 198.28532135 75.58291656 198.31429504 74.28279114 198.34414673 C69.25383973 198.43377005 64.22457969 198.50149067 59.19505024 198.54844093 C55.37614532 198.58418415 51.55935056 198.63741483 47.74145508 198.73388672 C44.05070757 198.82686894 40.36182577 198.87538482 36.66997337 198.89283371 C35.26518871 198.906906 33.86046784 198.93649913 32.45635414 198.98213577 C21.50410282 199.32061649 21.50410282 199.32061649 17.88061523 196.13916016 C16.30353679 193.82372005 15.12550168 191.56159284 14 189 C13.41395996 187.98518555 12.82791992 186.97037109 12.22412109 185.92480469 C11.74539551 185.01633789 11.26666992 184.10787109 10.7734375 183.171875 C10.22179932 182.13450195 9.67016113 181.09712891 9.10180664 180.02832031 C8.53196045 178.94647461 7.96211426 177.86462891 7.375 176.75 C3.82423758 170.04496821 0.26330128 163.36736629 -3.61328125 156.84375 C-4.1738623 155.89661133 -4.73444336 154.94947266 -5.31201172 153.97363281 C-6.37119409 152.19888986 -7.44384464 150.43209444 -8.53173828 148.67480469 C-9.00466309 147.87977539 -9.47758789 147.08474609 -9.96484375 146.265625 C-10.3837085 145.58274414 -10.80257324 144.89986328 -11.23413086 144.19628906 C-12.66813575 140.08398175 -11.3904386 136.83532682 -9.60473633 133.01489258 C-9.01974365 131.98517334 -8.43475098 130.9554541 -7.83203125 129.89453125 C-6.86233398 128.17073242 -6.86233398 128.17073242 -5.87304688 126.41210938 C-5.18649445 125.21206989 -4.49964416 124.01220076 -3.8125 122.8125 C-3.14433888 121.63263869 -2.4770143 120.45230323 -1.81054688 119.27148438 C-0.50101009 116.95308106 0.81022604 114.63567358 2.12255859 112.31884766 C2.74211426 111.22362793 3.36166992 110.1284082 4 109 C4.57959473 107.97567871 5.15918945 106.95135742 5.75634766 105.89599609 C6.28663574 104.94418457 6.81692383 103.99237305 7.36328125 103.01171875 C7.82645752 102.18502686 8.28963379 101.35833496 8.7668457 100.5065918 C11.43155901 95.09011752 12.25793407 90.46452728 12.31884766 84.43408203 C12.32889328 83.70168808 12.3389389 82.96929413 12.34928894 82.21470642 C12.37999009 79.81241587 12.39711931 77.41023609 12.4140625 75.0078125 C12.4327847 73.33485978 12.45235889 71.66191639 12.4727478 69.98898315 C12.52396398 65.59966551 12.5636458 61.21031728 12.60089111 56.82086182 C12.64099686 52.33622742 12.69205916 47.85171908 12.7421875 43.3671875 C12.83882223 34.57821128 12.92326663 25.7891724 13 17 C8.71 17 4.42 17 0 17 C0 11.39 0 5.78 0 0 Z " fill="#F8F8F8" transform="translate(56,13)"/>
<path d="M0 0 C14.52 0 29.04 0 44 0 C43.95617187 5.878125 43.91234375 11.75625 43.8671875 17.8125 C43.86168735 21.56788202 43.8591635 25.32280662 43.8671875 29.078125 C43.879607 35.02073014 43.88184594 40.96195445 43.81835938 46.90429688 C43.76778572 51.70311397 43.76712333 56.4997238 43.79904556 61.29867554 C43.80275629 63.11645317 43.789391 64.93435986 43.75750351 66.75186157 C43.54558941 79.72435562 45.97045458 87.93543378 53.78774071 98.35560799 C55.54409713 100.73805083 57.08775174 103.24127138 58.63671875 105.76171875 C59.15041016 106.58994141 59.66410156 107.41816406 60.19335938 108.27148438 C60.68642578 109.06876953 61.17949219 109.86605469 61.6875 110.6875 C62.22310547 111.52732422 62.75871094 112.36714844 63.31054688 113.23242188 C64.05981445 114.45348633 64.05981445 114.45348633 64.82421875 115.69921875 C65.26854248 116.40908936 65.71286621 117.11895996 66.1706543 117.8503418 C67.26196733 120.67901746 66.89519667 122.12594754 66 125 C64.91186523 127.36499023 64.91186523 127.36499023 63.55859375 129.80859375 C63.05650391 130.72189453 62.55441406 131.63519531 62.03710938 132.57617188 C61.50923828 133.52041016 60.98136719 134.46464844 60.4375 135.4375 C59.68629883 136.80165039 59.68629883 136.80165039 58.91992188 138.19335938 C54.69364471 145.84116231 50.34790468 153.42094936 46 161 C6.09947324 164.22403391 6.09947324 164.22403391 -3.1953125 159.31103516 C-7.602047 154.93095429 -9.39921208 149.62296132 -11.08544922 143.74609375 C-12.58625181 139.23967956 -15.21724264 135.50671212 -17.8125 131.5625 C-22.074716 124.90414761 -22.074716 124.90414761 -21.80444336 121.63354492 C-20.85739336 118.53314179 -19.4925839 116.1233343 -17.796875 113.359375 C-17.14589844 112.28816406 -16.49492188 111.21695313 -15.82421875 110.11328125 C-15.13972656 109.00339844 -14.45523438 107.89351563 -13.75 106.75 C-11.75880922 103.49273416 -9.771564 100.23352192 -7.79956055 96.96459961 C-6.69911158 95.15171781 -5.57990623 93.34985021 -4.42895508 91.56860352 C-0.90798122 85.86981175 -0.23359941 81.07081673 -0.1875 74.4375 C-0.0946875 69.7659375 -0.0946875 69.7659375 0 65 C8.58 65 17.16 65 26 65 C26 59.06 26 53.12 26 47 C17.42 47 8.84 47 0 47 C0 42.05 0 37.1 0 32 C8.58 32 17.16 32 26 32 C26 26.72 26 21.44 26 16 C17.42 16 8.84 16 0 16 C0 10.72 0 5.44 0 0 Z " fill="#262525" transform="translate(86,31)"/>
<path d="M0 0 C14.79468362 0 14.79468362 0 20.18383789 3.9453125 C25.50224731 9.5928595 29.2351293 16.30844911 30.52661133 24 C30.05992226 29.58489558 27.30386058 33.91971121 23.84277344 38.19628906 C22.43740731 39.98001303 22.43740731 39.98001303 21.58740234 42.20214844 C20.47121087 44.70467126 19.61790817 46.21056858 17.52661133 48 C12.7300412 49.00510652 8.08739213 48.75252676 3.21411133 48.5 C1.90120117 48.46390625 0.58829102 48.4278125 -0.7644043 48.390625 C-4.00369054 48.29639122 -7.23705829 48.16494088 -10.47338867 48 C-22.51386545 30.15381718 -22.51386545 30.15381718 -22.45141602 23.74511719 C-21.42300339 19.91064795 -19.28941338 16.79367388 -16.76708984 13.77539062 C-15.35224357 11.95526771 -15.35224357 11.95526771 -14.29882812 9.45898438 C-10.92220534 2.37169638 -7.81928487 0.56855412 0 0 Z " fill="#E6AE21" transform="translate(104.473388671875,128)"/>
<path d="M0 0 C8.91 0 17.82 0 27 0 C22.93099469 3.05175398 22.46322489 3.37435857 17.796875 3.29296875 C16.32734375 3.2784668 16.32734375 3.2784668 14.828125 3.26367188 C13.30445312 3.2259668 13.30445312 3.2259668 11.75 3.1875 C10.71875 3.17396484 9.6875 3.16042969 8.625 3.14648438 C6.08280208 3.11117607 3.54166777 3.06186036 1 3 C0.67 3.66 0.34 4.32 0 5 C-0.33 4.01 -0.66 3.02 -1 2 C-0.67 1.34 -0.34 0.68 0 0 Z " fill="#DEAE2D" transform="translate(95,130)"/>
</svg>
